<?xml version="1.0" encoding="UTF-8" standalone="no"?>
<svg width="101px" height="38px" viewBox="0 0 101 38" version="1.1" xmlns="http://www.w3.org/2000/svg" xmlns:xlink="http://www.w3.org/1999/xlink">
    <!-- Generator: Sketch 50.2 (55047) - http://www.bohemiancoding.com/sketch -->
    <title>alloyX</title>
    <desc>Created with Sketch.</desc>
    <defs></defs>
    <g id="Page-1" stroke="none" stroke-width="1" fill="none" fill-rule="evenodd">
        <path d="M12.8074407,17.6923299 C12.5337761,17.9659946 12.1369683,18.184923 11.6170055,18.3491218 C11.0970427,18.5133205 10.3444763,18.6911999 9.35928358,18.8827651 C7.82676165,19.1837962 6.77316862,19.566921 6.1984729,20.0321508 C5.62377717,20.4973807 5.33643362,21.167849 5.33643362,22.0435758 C5.33643362,23.5487313 6.19846428,24.3012977 7.92255145,24.3012977 C8.60671303,24.3012977 9.24297375,24.184992 9.83135271,23.9523771 C10.4197317,23.7197621 10.9260036,23.4050525 11.3501838,23.0082388 C11.774364,22.6114251 12.1164397,22.1462022 12.3764211,21.6125562 C12.6364025,21.0789101 12.7663912,20.5110645 12.7663912,19.9090024 L12.8074407,17.6923299 Z M13.1768861,27.5852569 C13.0126873,27.0652941 12.9032231,26.4632409 12.8484902,25.7790793 C12.2190615,26.4906074 11.3843969,27.058453 10.3444713,27.4826332 C9.30454573,27.9068133 8.10043942,28.1189002 6.73211626,28.1189002 C4.4059669,28.1189002 2.70243012,27.6057867 1.62145483,26.5795444 C0.540479539,25.553302 0,24.219207 0,22.5772192 C0,21.1267966 0.232611447,19.9705809 0.69784132,19.1085373 C1.16307119,18.2464937 1.80617343,17.5691839 2.62716732,17.0765876 C3.44816121,16.5839913 4.42649759,16.2213911 5.56220581,15.9887761 C6.69791403,15.7561612 7.93622791,15.5440743 9.2771846,15.352509 C10.6181413,15.1609438 11.521221,14.9078078 11.9864509,14.5930935 C12.4516808,14.2783792 12.6842922,13.7652657 12.6842922,13.0537376 C12.6842922,12.3969425 12.3764241,11.883829 11.7606787,11.5143818 C11.1449333,11.1449345 10.3171102,10.9602137 9.2771846,10.9602137 C8.04569376,10.9602137 7.16313857,11.2338742 6.62949254,11.7812035 C6.09584651,12.3285327 5.76061236,13.0537331 5.62378005,13.9568264 L0.65679183,13.9568264 C0.684158293,12.9169008 0.855196122,11.959089 1.16991045,11.0833621 C1.48462477,10.2076353 1.99089675,9.45506887 2.68874156,8.82564022 C3.38658636,8.19621157 4.29650761,7.71046414 5.4185326,7.36838335 C6.54055759,7.02630256 7.90886022,6.85526473 9.52348154,6.85526473 C11.1107364,6.85526473 12.4585145,7.03314407 13.5668562,7.38890809 C14.675198,7.74467211 15.5645947,8.2577856 16.2350731,8.92826394 C16.9055514,9.59874229 17.3912988,10.4334069 17.6923299,11.4322828 C17.993361,12.4311587 18.1438743,13.5600084 18.1438743,14.8188657 L18.1438743,27.5852569 L13.1768861,27.5852569 Z M20.2784478,27.5852569 L20.2784478,0 L25.6148814,0 L25.6148814,27.5852569 L20.2784478,27.5852569 Z M27.7084053,27.5852569 L27.7084053,0 L33.044839,0 L33.044839,27.5852569 L27.7084053,27.5852569 Z M45.0723394,23.6445059 C48.3289485,23.6445059 49.9572286,21.5920519 49.9572286,17.4870825 C49.9572286,13.4094795 48.3289485,11.3707086 45.0723394,11.3707086 C41.8157302,11.3707086 40.1874501,13.4094795 40.1874501,17.4870825 C40.1874501,21.5920519 41.8157302,23.6445059 45.0723394,23.6445059 L45.0723394,23.6445059 Z M45.0723394,28.1189002 C43.4303516,28.1189002 41.9662678,27.8589227 40.680044,27.3389599 C39.3938202,26.8189971 38.3060196,26.0937967 37.4166096,25.163337 C36.5271995,24.2328773 35.8498897,23.1108691 35.3846599,21.7972789 C34.91943,20.4836886 34.6868185,19.0469709 34.6868185,17.4870825 C34.6868185,15.8998276 34.9262715,14.4494268 35.4051846,13.1358366 C35.8840977,11.8222464 36.5750905,10.7002382 37.4781838,9.76977848 C38.3812771,8.83931873 39.4690777,8.12095985 40.7416182,7.61468028 C42.0141588,7.10840072 43.457718,6.85526473 45.0723394,6.85526473 C46.6595942,6.85526473 48.082629,7.10840072 49.3414863,7.61468028 C50.6003436,8.12095985 51.6744611,8.83247722 52.5638712,9.74925373 C53.4532812,10.6660302 54.1374325,11.7811969 54.6163456,13.0947871 C55.0952587,14.4083773 55.3347117,15.8724612 55.3347117,17.4870825 C55.3347117,19.1017038 55.0952587,20.5589461 54.6163456,21.8588531 C54.1374325,23.1587601 53.4532812,24.2739267 52.5638712,25.2043865 C51.6744611,26.1348462 50.593502,26.8532051 49.3209615,27.3594847 C48.048421,27.8657642 46.6322278,28.1189002 45.0723394,28.1189002 L45.0723394,28.1189002 Z M69.9072804,24.9170401 C69.52415,25.8201333 68.8331571,26.5248092 67.8342812,27.0310888 C66.8354053,27.5373683 65.7065557,27.7905043 64.4476984,27.7905043 C63.3804063,27.7905043 62.3952284,27.6194665 61.4921351,27.2773857 C60.5890418,26.9353049 59.8091093,26.442716 59.1523142,25.7996041 C58.4955191,25.1564922 57.9824056,24.3902427 57.6129584,23.5008327 C57.2435111,22.6114226 57.0587903,21.6057202 57.0587903,20.4836952 L57.0587903,7.38890809 L62.3952239,7.38890809 L62.3952239,19.7037549 C62.3952239,22.2214695 63.5309151,23.4803079 65.8023315,23.4803079 C67.0338223,23.4803079 68.0258417,23.1245493 68.7784195,22.4130212 C69.5309972,21.7014932 69.9072804,20.7984134 69.9072804,19.7037549 L69.9072804,7.38890809 L75.2437141,7.38890809 L75.2437141,28.1189002 C75.2437141,29.5419563 75.0042611,30.8144778 74.525348,31.9365027 C74.0464349,33.0585277 73.3896496,34.0026566 72.5549725,34.7689175 C71.7202954,35.5351785 70.7351175,36.1235486 69.5994093,36.5340456 C68.4637011,36.9445425 67.2527532,37.1497879 65.9665295,37.1497879 C62.983585,37.1497879 60.7532517,36.3972215 59.2754627,34.892066 C57.7976737,33.3869105 57.0587903,31.3207735 57.0587903,28.6935931 L62.0257785,28.6935931 C62.0257785,29.8977175 62.3746956,30.8418463 63.0725405,31.5260079 C63.7703853,32.2101694 64.8171368,32.5522451 66.2128264,32.5522451 C66.7054227,32.5522451 67.1706456,32.4496224 67.608509,32.2443739 C68.0463724,32.0391254 68.4363387,31.7517819 68.7784195,31.3823346 C69.1205003,31.0128874 69.3941608,30.554506 69.5994093,30.0071767 C69.8046577,29.4598475 69.9072804,28.8577943 69.9072804,28.2009992 L69.9072804,24.9170401 Z M93.8391328,27.5852569 L88.6258476,18.2259733 L83.125216,27.5852569 L76.4751987,27.5852569 L85.300839,13.66948 L76.9677926,0.328395915 L83.6999089,0.328395915 L88.6258476,9.15403614 L93.5928358,0.328395915 L100.201804,0.328395915 L91.9098068,13.423183 L100.776496,27.5852569 L93.8391328,27.5852569 Z" id="alloyX" fill="#111111"></path>
    </g>
</svg>